<?xml version="1.0" encoding="UTF-8" standalone="no" ?>
<!DOCTYPE svg PUBLIC "-//W3C//DTD SVG 1.1//EN" "http://www.w3.org/Graphics/SVG/1.1/DTD/svg11.dtd">
<svg xmlns="http://www.w3.org/2000/svg" xmlns:xlink="http://www.w3.org/1999/xlink" version="1.1" width="30" height="30" viewBox="0 0 30 30" xml:space="preserve">
<desc>Created with Fabric.js 5.2.4</desc>
<defs>
</defs>
<g transform="matrix(1 0 0 1 15 15)" id="6dbbb9ba-59d1-475e-a4f0-7770644ad678"  >
<rect style="stroke: none; stroke-width: 1; stroke-dasharray: none; stroke-linecap: butt; stroke-dashoffset: 0; stroke-linejoin: miter; stroke-miterlimit: 4; fill: rgb(255,255,255); fill-rule: nonzero; opacity: 1; visibility: hidden;" vector-effect="non-scaling-stroke"  x="-15" y="-15" rx="0" ry="0" width="30" height="30" />
</g>
<g transform="matrix(Infinity NaN NaN Infinity 0 0)" id="25b8dfe8-facf-4489-a691-9f6cbfa37754"  >
</g>
<g transform="matrix(0.24 0 0 0.24 15 15)"  >
<g style="" vector-effect="non-scaling-stroke"   >
		<g transform="matrix(1 0 0 1 -0.03 0.02)"  >
<path style="stroke: none; stroke-width: 1; stroke-dasharray: none; stroke-linecap: butt; stroke-dashoffset: 0; stroke-linejoin: miter; stroke-miterlimit: 4; fill: rgb(4,230,13); fill-rule: nonzero; opacity: 1;" vector-effect="non-scaling-stroke"  transform=" translate(-49.97, -50.03)" d="M 49.974 23.503 C 35.327999999999996 23.503 23.450999999999997 35.38 23.450999999999997 50.025999999999996 C 23.450999999999997 64.676 35.327999999999996 76.54899999999999 49.974 76.54899999999999 C 64.624 76.54899999999999 76.497 64.67599999999999 76.497 50.025999999999996 C 76.497 35.38 64.624 23.503 49.974 23.503 z M 52.589 53.73 C 51.443999999999996 54.928 49.539 54.928 48.341 53.73 C 47.523 52.913999999999994 47.305 51.714 47.632 50.681 L 34.614 37.665 L 36.358999999999995 35.977 L 49.31999999999999 48.884 C 50.028999999999996 48.557 50.842999999999996 48.557 51.60999999999999 48.829 L 61.794999999999995 38.644 L 63.535999999999994 40.387 L 53.295 50.626 C 53.678 51.662 53.46 52.914 52.589 53.73 z" stroke-linecap="round" />
</g>
		<g transform="matrix(1 0 0 1 0 0)"  >
<path style="stroke: none; stroke-width: 1; stroke-dasharray: none; stroke-linecap: butt; stroke-dashoffset: 0; stroke-linejoin: miter; stroke-miterlimit: 4; fill: rgb(4,230,13); fill-rule: nonzero; opacity: 1;" vector-effect="non-scaling-stroke"  transform=" translate(-50, -50)" d="M 75.409 24.593 C 68.929 18.058 59.940000000000005 14.028 49.973000000000006 14.028 C 40.062000000000005 14.028 31.075000000000006 18.058 24.538000000000007 24.593 C 18.05700000000001 31.073999999999998 14.027000000000008 40.116 14.027000000000008 50.027 C 14.027000000000008 59.941 18.05700000000001 68.92699999999999 24.538000000000007 75.463 C 31.075000000000006 81.943 40.062000000000005 85.97399999999999 49.973000000000006 85.97399999999999 C 59.940000000000005 85.97399999999999 68.928 81.94399999999999 75.409 75.463 C 81.94200000000001 68.928 85.97200000000001 59.94199999999999 85.97200000000001 50.026999999999994 C 85.973 40.116 81.942 31.074 75.409 24.593 z M 72.414 72.467 C 66.69500000000001 78.18599999999999 58.743 81.725 49.974000000000004 81.725 C 41.20400000000001 81.725 33.30800000000001 78.18599999999999 27.537000000000003 72.467 C 21.818 66.692 18.276000000000003 58.796 18.276000000000003 50.027 C 18.276000000000003 41.259 21.818000000000005 33.309 27.537000000000003 27.59 C 33.308 21.871 41.204 18.33 49.974000000000004 18.33 C 58.744 18.33 66.696 21.871 72.414 27.589999999999996 C 78.134 33.309 81.725 41.259 81.725 50.027 C 81.725 58.796 78.134 66.691 72.414 72.467 z" stroke-linecap="round" />
</g>
</g>
</g>
</svg>